<svg t="1607048882768" class="icon" viewBox="0 0 1024 1024" version="1.1" xmlns="http://www.w3.org/2000/svg" p-id="4027" width="200" height="200"><path d="M512 64C264.6 64 64 264.6 64 512s200.6 448 448 448 448-200.6 448-448S759.4 64 512 64z m199.5 510c2.3 1.5 3.5 4 3.1 6.7-0.4 2.6-2.2 4.8-4.8 5.6-2.6 0.8-5.4 0.1-7.3-1.8-13.3-14.2-31-23.8-50.5-27.3-11.3-1.2-20.9-8.6-24.7-19-3.8-10.4-1.1-22 6.9-29.9 7.4-7.2 18.2-10.1 28.4-7.5 10.2 2.6 18.1 10.3 20.9 20.1 2.8 20.4 12.7 39.1 28 53.1z m-243.4 87.4c-22.4 0.2-44.7-2.8-66.3-8.9l-45.3 22.2-15.2 7.4-1 0.7h-0.3c-4.8 2.7-10.6 2.9-15.6 0.4-4.9-2.5-8.2-7.2-8.7-12.6l-0.2-1.5 0.2-1.5c0.1-0.6 0.1-1.3 0.3-1.9l0.7-2.1 6.4-48.7c-14.1-12.2-29.4-29.4-38.8-43.2-33.1-47.1-37.5-107.9-11.4-159.1 8.2-16.3 19.4-31.6 33.1-45.2 34.5-34.4 82.5-56.4 135.4-62.1 18.2-1.9 36.5-1.8 54.6 0.2 51 5 98.7 27.1 134.9 62.5 13.3 13.3 24.3 28.6 32.7 45.2 12.8 25.3 18.4 53.4 16.1 81.5l-1.3-1.5c-9.6-9.4-24.6-11.1-36.2-4.1 0.1-1.9 0.3-3.9 0.3-5.8 0-18.8-4.4-37.2-13.2-54.6-6.5-13.1-15.4-25.4-26.3-36.3-28.1-28.2-67.7-46.5-111.5-51.4-15.2-1.6-30.6-1.6-45.8 0-44 4.6-83.8 22.7-112.1 51.1-11 10.9-19.8 23-26.5 36.1-20.5 40.3-17 88.3 9.2 125.4 10.3 14.7 23 27.6 37.7 38.2 5.4 3.9 7.7 10.7 5.7 16.9l-3.1 11.2-2.7 10.1-1.7 6.1-1.4 5.6c-0.1 1.3 1 2.5 2.4 2.6 0.4 0 0.9-0.2 1.8-0.7l1.6-0.9 37.3-21.3 1.2-0.6c4.9-2.7 10.7-3.3 16.1-1.6 9.8 2.8 19.9 4.8 30.1 6.1l4.5 0.6c28.1 3.1 56.7 0.4 83.6-8.1-1.4 13.3 7 25.8 20.1 30-26.2 9-53.7 13.6-81.4 13.6z m113.5-24.8c-10.7 3.7-22.7 1.1-30.7-6.7-7.5-7.2-10.5-17.8-7.8-27.7 2.7-9.9 10.7-17.7 20.9-20.3 21.3-2.7 40.8-12.7 55.2-28.1l0.5-0.5c2.9-2.5 7.4-2.3 10 0.5 2.6 2.8 2.4 7.2-0.5 9.7-14.6 12.9-24.5 30.2-28.1 49.1-1.2 11-8.8 20.3-19.5 24z m77.5 82.6c-14.7 2.1-28.8-6.9-32.7-20.9-2.7-20.3-12.6-39-27.9-53-1.7-1.2-2.8-3-3-5-0.2-2 0.6-4 2.1-5.4 2.8-2.7 7.2-2.7 10 0 13.3 14.2 31 23.8 50.4 27.3 14.8 1.5 26.2 13.5 26.4 28 0.3 14.5-10.6 26.9-25.3 29z m108.8-107.1c-1.1 12-9.7 22.1-21.7 25.3-20.8 2.6-40.1 12.2-54.5 27.2-1.5 2.2-4.2 3.4-6.9 3-2.7-0.4-4.9-2.2-5.8-4.7-0.8-2.5-0.1-5.3 1.8-7.1 14.6-13 24.4-30.2 28-49.1 0.7-6.5 3.7-12.6 8.5-17.3h0.1c8.8-8.6 22.1-10.9 33.3-5.8 11.5 5.1 18.3 16.5 17.2 28.5z" fill="#0082EF" p-id="4028"></path></svg>