<?xml version="1.0" standalone="no"?><!DOCTYPE svg PUBLIC "-//W3C//DTD SVG 1.1//EN" "http://www.w3.org/Graphics/SVG/1.1/DTD/svg11.dtd"><svg t="1599814001098" class="icon" viewBox="0 0 1636 1024" version="1.1" xmlns="http://www.w3.org/2000/svg" p-id="2862" xmlns:xlink="http://www.w3.org/1999/xlink" width="319.53125" height="200"><defs><style type="text/css"></style></defs><path d="M320.62152 0h408.565425c57.048953 0 92.507009 46.510116 79.203887 103.731837l-190.212298 816.678606c-13.440321 57.079442-70.535007 103.589557-127.578878 103.589557H81.988497c-57.043872 0-92.471439-46.505034-79.203886-103.589557L193.098537 103.731837C206.396578 46.510116 263.465857 0 320.62152 0" fill="#ED171F" p-id="2863"></path><path d="M695.202497 0h469.837028c57.033709 0 31.31671 46.510116 17.91704 103.731837l-190.217379 816.678606c-13.338693 57.079442-9.136369 103.589557-66.276788 103.589557H456.605045c-57.115011 0-92.456195-46.505034-79.081933-103.589557l190.176728-816.678606C581.150323 46.510116 638.168788 0 695.202497 0" fill="#082F67" p-id="2864"></path><path d="M1146.477146 0h408.499367c57.104849 0 92.557823 46.510116 79.168317 103.731837l-190.197053 816.678606c-13.369181 57.079442-70.43846 103.589557-127.639856 103.589557h-408.397739c-57.115011 0-92.593393-46.505034-79.173398-103.589557l190.130995-816.678606C1032.23696 46.510116 1089.280832 0 1146.477146 0" fill="#006A65" p-id="2865"></path><path d="M1078.188121 768.21723h38.54247l11.102874-36.972315h-38.476412l-11.168932 36.972315z m30.833976-102.151519l-13.237064 43.801726s14.639533-7.479831 22.480143-9.827441c7.901587-1.875039 19.93944-3.313077 19.93944-3.313077l9.359951-30.661208h-38.54247z m19.136578-63.019606l-12.805145 42.063885s14.329567-6.453387 22.160015-8.567252c7.921913-2.068133 19.827649-2.876076 19.827649-2.876076l9.217671-30.620557h-38.40019z m85.179621 0l-49.777461 164.779857h13.389507l-10.386395 34.014936h-13.369181l-3.130147 10.594733h-47.363792l3.247019-10.594733h-96.328227l9.71565-31.530128h9.695324l50.524427-167.264665 10.045941-33.781192h48.354666l-5.071244 17.01255s12.922017-9.273567 25.117394-12.408796c12.185213-3.236856 82.222242-4.400498 82.222242-4.400498l-10.335582 33.583017h-16.550141z" fill="#FFFFFF" p-id="2866"></path><path d="M1234.715774 569.458006h51.596603l0.569118 19.238206c-0.320129 3.21653 2.454319 4.812092 8.430054 4.812092h10.488023l-9.598777 31.707978h-27.825783c-24.182415 1.798818-33.339109-8.582496-32.744585-20.26465l-0.914653-35.493626zM1241.484207 720.091227h-49.177854l8.424973-28.293272h56.180032l8.033704-25.767814h-55.44831l9.476824-31.941723h154.469682l-9.659754 31.941723h-51.769371l-8.12517 25.767814h51.916733l-8.485949 28.293272h-56.230847l-9.995127 11.880329h22.79519l5.569222 35.656231c0.558955 3.496008 0.68599 5.782641 1.814062 7.317226 1.102665 1.346573 7.932076 1.91569 11.92098 1.91569h6.890388l-10.482942 34.685682h-17.566423c-2.718553 0-6.71762-0.248989-12.225865-0.548792-5.269419-0.370943-9.009334-3.531578-12.556156-5.172872-3.236856-1.615887-8.048948-5.503163-9.21259-12.154725l-5.447268-35.554602-25.523906 35.056625c-8.120088 11.031734-19.075601 19.456706-37.632898 19.456706h-35.752778l9.334544-30.92036h13.68931c3.922846 0 7.479831-1.559992 10.045941-2.860832 2.606762-1.128072 4.91372-2.408587 7.556052-6.336514l37.175571-52.419792zM702.865258 642.701403h130.190722l-9.593696 31.077883h-52.099663l-8.079437 26.479211h53.237898l-9.649591 32.07892h-53.303956l-12.876285 43.059841c-1.595562 4.771441 12.612051 5.442187 17.749354 5.442186l26.611327-3.689101-10.640466 35.4733h-60.092716c-4.746034 0-8.445298-0.670746-13.648658-1.854713-5.071244-1.219538-7.266412-3.490926-9.568289-6.941202-2.174842-3.511252-5.467594-6.417817-3.226693-13.912891l17.256457-57.079442h-29.589032l9.847767-32.576898h29.685578l7.916831-26.479211h-29.58395l9.456498-31.077883zM790.509361 586.861824h53.436073l-9.776626 32.500678h-72.943594l-7.921913 6.82941c-3.353728 3.292752-4.583429 1.91569-8.973764 4.283626-4.181998 2.088458-12.794982 6.234886-24.080786 6.234886h-23.399878l9.492068-31.250651h7.027585c5.975734 0 10.035778-0.497978 12.032771-1.834388 2.306959-1.458364 4.94929-4.771441 7.906669-10.101836l13.389507-24.426322h53.187084l-9.375196 17.764597z" fill="#FFFFFF" p-id="2867"></path><path d="M893.011498 640.297897s14.548067-13.277716 39.568914-17.642644c5.655606-1.128072 41.159394-0.731723 41.159394-0.731722l5.371047-17.861145h-75.199738l-10.899617 36.235511z m70.509599 13.536868H888.890477l-4.573266 15.096859h64.559272c7.632273-0.960386 9.202428 0.172768 9.847766-0.198175l4.796848-14.898684z m-96.622948-84.376759h45.458264l-6.570259 22.891738s14.360055-11.448409 24.426322-15.554186c10.000208-3.724671 32.703934-7.119051 32.703934-7.119051l73.578769-0.355699-25.041172 83.528164c-4.22773 14.324486-9.161776 23.618378-12.205539 27.785132-2.830344 4.339521-6.051955 7.94732-12.464691 11.443328-6.290782 3.313077-11.880329 5.228768-17.078608 5.721664-4.893395 0.370943-12.357981 0.630094-22.693562 0.670746h-70.916112l-20.025824 66.144671c-1.854713 6.529608-2.759204 9.588614-1.539666 11.382351 1.062014 1.580317 3.455357 3.39438 6.809085 3.39438l31.230325-2.937054-10.635384 36.205023h-35.082032c-11.082548 0-19.258531-0.2185-24.919218-0.670745-5.401535-0.437001-11.021571 0-14.761487-2.942135-3.302914-2.860832-8.277612-6.631236-8.130251-10.493105 0.345536-3.61288 1.814062-9.568289 4.090533-17.718865l63.766573-211.376357z" fill="#FFFFFF" p-id="2868"></path><path d="M999.573678 704.323622l-4.22773 20.086801c-1.808981 6.239967-3.39438 10.991083-8.120088 15.056208-4.923883 4.181998-10.797989 8.582496-24.472055 8.582496l-25.17837 1.021363-0.279478 22.734213c-0.299803 6.453387 1.402468 5.762315 2.449238 6.829411 1.199212 1.112828 2.225656 1.615887 3.343566 1.996993l7.94732-0.376024 24.101112-1.397387-9.903662 33.110446h-27.663178c-19.390648 0-33.781192-0.416675-38.537388-4.181998-4.613917-2.921809-5.264337-6.671887-5.111896-12.998238l1.717516-88.441884h44.172669l-0.594525 18.074564h10.670954c3.607799 0 6.051955-0.355698 7.591622-1.321166 1.280514-1.067095 2.322203-2.444157 3.008192-4.65965l4.319196-14.105985h34.766985zM368.950779 260.935316c-1.549829 7.103807-29.94473 137.909378-29.94473 137.909379-6.173909 26.540187-10.599814 45.498916-25.64586 57.638396-8.612984 7.002178-18.587786 10.51343-30.153067 10.51343-18.587786 0-29.507729-9.273567-31.392931-26.855234l-0.32521-6.021467 5.711501-35.61558s29.792288-119.24029 35.097277-134.946918c0.157524-0.889246 0.299803-1.321166 0.457326-1.798818-57.948362 0.518303-68.253455 0-68.95977-0.828269-0.279477 1.128072-1.824225 8.567252-1.824225 8.567252l-30.391894 134.296498-2.622006 11.443328-4.979778 37.251792c0 10.991083 2.134191 20.051231 6.458467 27.724155 13.887485 24.212903 53.375096 27.825783 75.692635 27.825783 28.801413 0 55.758276-6.158665 73.959875-17.26662 31.707978-18.724984 40.005915-48.065026 47.389199-73.975119l3.414705-13.318367s30.706941-123.894859 35.950953-139.916533c0.101628-0.889246 0.238826-1.321166 0.431919-1.798818-41.947012 0.472571-54.360889 0-58.324386-0.82827M538.51224 506.733122c-20.528883-0.315047-27.713992-0.315047-51.769372 0.86892l-0.960386-1.737841c2.174842-9.156695 4.359847-18.17111 6.453387-27.424352l2.952297-12.449446c4.430987-19.487195 8.785752-42.145187 9.28373-48.974598 0.416675-4.176916 1.814062-14.52266-10.025616-14.52266-4.989941 0-10.193302 2.408587-15.411906 4.857824-2.957379 10.360988-8.800996 39.360576-11.524631 52.658618-5.955409 27.92233-6.39241 31.037232-9.009334 44.868821l-1.717515 1.854714c-21.230117-0.315047-28.511773-0.315047-52.887281 0.86892l-1.133154-1.971585a4919.904366 4919.904366 0 0 0 12.017527-49.88417c10.213627-44.970449 12.596807-62.191337 15.503372-84.986527l1.88012-1.438038c23.755576-3.292752 29.522973-3.922846 55.234891-9.232916l2.174842 2.388261-3.892357 14.365136c4.339521-2.586436 8.465624-5.188116 12.977913-7.5154 12.144562-5.919839 25.600127-7.698331 32.993573-7.698331 11.255316 0 23.55232 3.145391 28.720111 16.143629 4.908639 11.600852 1.681946 25.945663-4.725708 54.203365l-3.353728 14.26859c-6.590585 31.413256-7.672924 37.155246-11.362026 58.639434l-2.418749 1.849632zM621.964182 506.733122c-12.302086-0.081303-20.320545-0.315047-28.059528-0.081303-7.749145 0.081303-15.289953 0.457327-26.784095 0.950223l-0.691071-0.950223-0.741885-1.021362c3.099658-11.900655 4.873069-16.102978 6.407654-20.284976 1.565073-4.202323 3.099658-8.424972 5.813129-20.498395 3.61288-15.71171 5.858862-26.758688 7.373121-36.347302 1.681946-9.375195 2.622006-17.261539 3.800892-26.438559l0.945142-0.731723 1.021363-0.909571c12.31733-1.737841 20.147778-2.881158 28.064609-4.100696 8.079437-1.189049 16.199525-2.769367 29.009751-5.193197l0.462408 1.128072 0.370943 1.122991c-2.413668 9.751219-4.771441 19.461788-7.124133 29.360368-2.281552 9.86301-4.593592 19.57866-6.798922 29.324798-4.639324 20.777872-6.488956 28.455878-7.601784 33.979367-1.041688 5.269419-1.321166 8.109925-3.165717 18.841856l-1.112828 0.985793-1.189049 0.863839zM752.845975 433.708226c-1.107747 5.289744-5.762315 25.097068-12.058178 33.562691-4.40558 6.153584-9.64451 9.923987-15.406825 9.923988-1.656539 0-11.819352 0-12.012446-15.056208-0.101628-7.459505 1.417712-15.152755 3.292752-23.384634 5.365965-23.933426 11.814271-44.020226 28.115423-44.020226 12.805145 0.005081 13.633414 14.939336 8.069274 38.974389m53.730794 2.286633c7.180028-31.611431 1.69719-46.388162-5.371046-55.402577-10.762419-13.674065-29.644927-18.115215-49.248994-18.115215-11.809189 0-39.828066 1.224619-61.84072 21.509594-15.655814 14.517579-23.013691 34.390961-27.424352 53.293794-4.425905 19.314427-9.547963 54.244017 22.50555 67.145708 9.944313 4.202323 24.101112 5.391373 33.257807 5.391373 23.460855 0 47.541641-6.458468 65.565391-25.656023 14.055171-15.56943 20.386604-38.735563 22.556364-48.166654M1308.965289 508.846987c-24.761695-0.2185-31.906153-0.2185-54.853786 0.711397l-1.529503-1.814062c6.351758-23.582809 12.561237-47.099559 18.044075-70.875461 7.246086-30.961011 8.841648-44.101529 11.250234-62.191337l1.829307-1.499015c24.619416-3.572229 31.453908-4.461475 57.115011-9.253241l0.838432 2.108783c-4.705383 19.395729-9.415847 38.776215-13.938298 58.248166-9.446335 40.803696-12.891529 61.485021-16.443432 82.837092l-2.31204 1.727678z" fill="#FFFFFF" p-id="2869"></path><path d="M1271.72874 436.452186c-1.224619 5.071244-5.858862 25.091986-12.230946 33.405167-4.197242 5.955409-14.248264 9.669917-19.969928 9.669917-1.615887 0-11.692317 0-12.058178-14.863114-0.060977-7.398528 1.448201-15.096859 3.343565-23.440529 5.41678-23.399878 11.819352-43.390132 28.166238-43.390132 12.749249 0 18.272739 14.55823 12.749249 38.618691m49.055901 2.306958c7.134295-31.413256-21.824642-2.784611-26.438559-13.140517-7.144458-16.163955-2.667739-49.000005-31.225245-59.92503-10.986001-4.283626-36.779222 1.219538-58.812201 21.367315-15.584674 14.446439-23.023854 34.096239-27.388782 52.999072-4.451312 19.080682-9.553045 53.888318 22.317538 66.363172 10.081511 4.2633 19.319508 5.503163 28.532099 5.167791 32.028107-1.773411 56.429022-50.133159 74.462934-69.274818 13.973868-15.157836 16.377374 5.696257 18.552216-3.556985M946.945549 506.733122c-20.600023-0.315047-27.627608-0.315047-51.789698 0.86892l-0.894327-1.737841c2.073214-9.156695 4.354766-18.17111 6.529607-27.424352l2.855751-12.449446c4.512289-19.487195 8.836566-42.145187 9.28373-48.974598 0.437001-4.176916 1.814062-14.52266-9.903662-14.52266-5.071244 0-10.244116 2.408587-15.53386 4.857824-2.860832 10.360988-8.74002 39.360576-11.570363 52.658618-5.879188 27.92233-6.270456 31.037232-8.92295 44.868821l-1.748004 1.854714c-21.16914-0.315047-28.450796-0.315047-52.800897 0.86892l-1.102666-1.971585c4.065125-16.595874 8.048948-33.349272 11.941306-49.88417 10.213627-44.970449 12.622214-62.191337 15.427151-84.986527l1.930934-1.438038c23.760658-3.292752 29.538217-3.922846 55.239973-9.232916l2.063051 2.388261-3.729753 14.365136a231.188761 231.188761 0 0 1 12.891529-7.5154c11.987038-5.919839 25.656023-7.698331 32.902109-7.698331 11.326456 0 23.684437 3.145391 28.948774 16.143629 4.771441 11.600852 1.549829 25.945663-4.954372 54.203365l-3.175879 14.26859c-6.748108 31.413256-7.769471 37.155246-11.372188 58.639434l-2.515296 1.849632zM1124.982796 260.681246l-17.058283 0.213419c-44.436902 0.497978-62.237069 0.299803-69.559376-0.589443-0.655501 3.257182-1.864876 9.075392-1.864876 9.075392l-15.828582 73.79727s-38.059736 156.822374-39.87888 164.190414c38.776215-0.416675 54.645448-0.416675 61.297009 0.233744 1.549829-7.337551 10.58457-51.124033 10.58457-51.124032s7.733901-32.18563 8.226798-33.349273c0 0 2.393343-3.333403 4.873069-4.639324h3.496007c33.435656 0 71.246404 0 100.85068-21.783991 20.020742-14.974906 33.91839-37.012967 40.02624-63.710677 1.570155-6.631236 2.754122-14.502335 2.754123-22.256562 0-10.300011-2.063051-20.462825-8.01846-28.374575-15.132429-21.174222-45.107647-21.468943-79.900039-21.682362m22.276887 76.790218c-3.64845 16.280827-14.23302 30.112416-27.876598 36.779222-11.316293 5.640361-25.061498 6.077362-39.284355 6.077362h-9.156695l0.635176-3.653531s17.043038-73.594013 16.966817-73.40092l0.411594-3.71959 0.355699-2.947216 6.737945 0.716479s34.853369 3.018356 35.742615 3.114902c13.770612 5.269419 19.461788 19.080682 15.467802 37.033292M1511.97765 363.655953l-1.971586-2.149435c-25.305405 5.030593-29.893916 5.914757-53.248061 8.999171l-1.758167 1.656539-0.193093 1.143316-0.137198-0.391268c-17.408899 40.13295-16.794049 31.448826-30.95593 62.943385-0.121954-1.438038-0.121954-2.367936-0.121954-2.367935l-3.592554-69.828692-2.210412-2.149435c-26.499536 5.030593-27.210933 5.914757-51.738883 8.999172l-1.966505 1.656538s-0.228663 1.798818-0.365861 2.759204l0.198175 0.39635c3.023437 15.665977 2.332366 12.17505 5.371047 36.840199 1.417712 12.114074 3.292752 24.390752 4.715545 36.362546 2.469564 20.086801 3.831381 29.990462 6.727783 60.534798-16.473921 27.419271-20.478069 37.770096-36.311733 61.800069l0.889246 2.195167c23.98424-0.889246 29.492485-0.889246 47.267246-0.889246l3.892357-4.359847c13.440321-28.887797 115.510537-204.150596 115.510538-204.150596M644.581523 380.648177c13.587682-9.451416 15.254383-22.495388 3.811055-29.304472-11.641503-6.829411-31.885827-4.720627-45.575136 4.791766-13.735042 9.293893-15.284871 22.475062-3.739916 29.284147 11.468735 6.671887 31.804525 4.679976 45.503997-4.771441" fill="#FFFFFF" p-id="2870"></path><path d="M1394.739434 570.189729l-20.015661 34.157216c-6.326351 11.682154-18.003424 20.462825-36.631861 20.539046l-31.78928-0.528466 9.21259-30.783162h6.199316c3.2521 0 5.660687-0.238826 7.489994-1.128073 1.529503-0.513222 2.70839-1.793737 4.060044-3.607798l11.692316-18.648763h49.782542z" fill="#FFFFFF" p-id="2871"></path></svg>