<?xml version="1.0" standalone="no"?><!DOCTYPE svg PUBLIC "-//W3C//DTD SVG 1.1//EN" "http://www.w3.org/Graphics/SVG/1.1/DTD/svg11.dtd"><svg t="1599814693921" class="icon" viewBox="0 0 1024 1024" version="1.1" xmlns="http://www.w3.org/2000/svg" p-id="7506" xmlns:xlink="http://www.w3.org/1999/xlink" width="200" height="200"><defs><style type="text/css"></style></defs><path d="M744.37776847 408.12376883c-16.97449028 60.57687389-40.51249956 115.49806865-68.80952684 164.37113894 130.67302533 45.52859344 267.90956965 95.3070193 339.54693604 111.89900023L1015.11517767 76.37357302c0-39.27306938-30.35984691-71.11079557-67.81226916-71.11079556L58.49558889 5.26277746c-37.45242226 0-67.81226917 31.83772619-67.81226918 71.11079556l0 882.21026806c0 39.27306938 30.35984691 71.11203711 67.81226918 71.1120371l888.80856116 0c37.45118071 0 67.81226917-31.83896773 67.81226917-71.1120371l0-112.13620657c-96.07328078-43.34530772-242.31370691-118.97170481-399.73633319-187.52415578C532.67477541 782.00840617 430.42421085 851.46372839 291.52225841 851.46372839c-144.69424257 0-225.72296875-65.72461139-225.72296875-182.50806188 0-118.45258445 140.83437121-183.40720852 225.72296875-183.40720853 106.10546855 0 268.80499044 47.84476433 286.6873206 53.7637307 22.50473714-40.51498386 39.7412707-87.20104258 48.74515251-133.63375006L243.41420805 405.67843862l0-51.19048271L448.81696814 354.48795591l0-51.7046357L191.97161563 302.78332021l0-51.18551532L448.81696814 251.59780489l0-103.53967226 103.28259637 0 0 103.53967226 256.9745106 0 0 51.18551532L551.96792089 302.78332021l0 51.7046357 204.49864605 0c-2.70240609 12.60295024-5.65692189 29.45200705-8.87348096 41.67244792L744.37776847 408.12376883z" fill="#1296db" p-id="7507"></path><path d="M103.09895722 668.95566651c0 87.33144345 118.70966033 111.77232521 190.34702794 111.7723252 81.02996772 0 155.37098297-70.35695316 229.5853232-160.64415273-70.48362818-28.42866969-138.91064566-65.72461139-229.5853232-65.7246114C208.30279483 554.36046913 103.22314794 592.94676005 103.09895722 668.95566651z" fill="#1296db" p-id="7508"></path></svg>